v 0.214 -0.45 -0.214
v -0.214 -0.45 0.214
v 0.214 -0.45 0.214
v -0.214 -0.45 -0.214
v 0.214 0.45 -0.214
v -0.214 0.45 -0.214
v 0.214 0.45 0.214
v 0.5 0 0.5
v 0.278 -0.416 0.278
v -0.278 -0.416 0.278
v 0.354 -0.354 0.354
v -0.354 -0.354 0.354
v -0.5 0 0.5
v 0.416 -0.278 0.416
v -0.278 0.416 0.278
v 0.278 0.416 0.278
v -0.416 -0.278 0.416
v 0.354 0.354 0.354
v -0.5 0 -0.5
v 0.462 -0.191 0.462
v -0.462 -0.191 0.462
v -0.354 0.354 0.354
v 0.49 -0.098 0.49
v 0.5 0 -0.5
v 0.49 0.098 -0.49
v 0.49 0.098 0.49
v -0.49 -0.098 0.49
v 0.49 -0.098 -0.49
v 0.462 0.191 0.462
v -0.462 0.191 0.462
v 0.462 0.191 -0.462
v -0.49 0.098 0.49
v 0.416 0.278 0.416
v -0.49 0.098 -0.49
v -0.416 0.278 0.416
v 0.462 -0.191 -0.462
v 0.416 0.278 -0.416
v -0.462 0.191 -0.462
v -0.416 0.278 -0.416
v 0.416 -0.278 -0.416
v -0.49 -0.098 -0.49
v 0.354 0.354 -0.354
v -0.214 0.45 0.214
v -0.354 0.354 -0.354
v 0.278 0.416 -0.278
v -0.462 -0.191 -0.462
v 0.354 -0.354 -0.354
v -0.278 0.416 -0.278
v -0.416 -0.278 -0.416
v 0.278 -0.416 -0.278
v -0.354 -0.354 -0.354
v -0.278 -0.416 -0.278
vt 0.038 0.679
vt 0.01 0.59
vt 0.99 0.59
vt 0.916 0.767
vt 0.085 0.767
vt 0.962 0.679
vt 0.852 0.146
vt 0.915 0.233
vt 0.084 0.233
vt 0.713 0
vt 0.222 0.062
vt 0.286 0
vt 0.286 1
vt 0.222 0.938
vt 0.713 1
vt 0.01 0.59
vt 0.989 0.59
vt 0.961 0.679
vt 0.287 0
vt 0.778 0.062
vt 0.223 0.062
vt 0.778 0.938
vt 0.222 0.938
vt 0.146 0.854
vt 0.286 1
vt 0.714 1
vt 0.777 0.062
vt 0.146 0.146
vt 0 0.5
vt 0.989 0.41
vt 0.999 0.5
vt 0.854 0.146
vt 0.916 0.233
vt 0.147 0.146
vt 0.962 0.321
vt 0.085 0.233
vt 0.99 0.41
vt 0.038 0.321
vt 0.777 0.938
vt 0.778 0.938
vt 0.146 0.854
vt 0.854 0.854
vt 0.147 0.854
vt 1 0.5
vt 0.01 0.41
vt 0.146 0.854
vt 0.223 0.938
vt 0.778 0.938
vt 0.916 0.767
vt 0.084 0.767
vt 0.038 0.679
vt 0.962 0.679
vt 0.038 0.679
vt 0.961 0.321
vt 0.038 0.321
vt 0.01 0.41
vt 0.99 0.59
vt 1 0.5
vt 0.962 0.679
vt 0.084 0.767
vt 0.916 0.767
vt 0.853 0.854
vt 0.915 0.767
vt 0.084 0.767
vt 0.852 0.854
vt 0.778 0.062
vt 0.853 0.146
vt 0.222 0.062
vt 0.146 0.146
vt 0.916 0.233
vt 0.084 0.233
vt 0.962 0.321
vt 0.038 0.321
vt 0.99 0.41
vt 0.714 1
vt 0.75 0.25
vt 0.75 0.75
vt 0.25 0.75
vt 0.25 0.25
vt 0.714 0
vt 0.286 0
vt 0.714 0
vt 0.25 0.25
vt 0.75 0.25
vt 0.75 0.75
vt 0.287 1
vt 0.778 0.062
vt 0.146 0.146
vt 0.084 0.233
vt 0.916 0.233
vt 0.962 0.321
vt 0 0.5
vt 0.714 0
vt 0.714 1
vn -0.62 0.48 0.62
vn -0.684 0.254 0.684
vn 0.684 0.254 0.684
vn 0.531 0.66 0.531
vn -0.531 0.66 0.531
vn 0.62 0.48 0.62
vn -0.43 -0.794 0.43
vn -0.531 -0.66 0.531
vn -0.531 -0.66 -0.531
vn -0.186 -0.965 0.186
vn -0.326 -0.887 -0.326
vn -0.186 -0.965 -0.186
vn -0.186 0.965 -0.186
vn -0.326 0.888 -0.326
vn -0.186 0.965 0.186
vn -0.684 0.254 -0.684
vn 0.326 -0.887 0.326
vn -0.326 -0.887 0.326
vn 0.326 0.888 -0.326
vn 0.43 0.794 -0.43
vn 0.186 0.965 -0.186
vn -0.43 -0.794 -0.43
vn -0.707 0 -0.707
vn -0.684 -0.254 0.684
vn -0.707 0 0.707
vn 0.43 -0.794 0.43
vn 0.531 -0.66 0.531
vn 0.62 -0.48 0.62
vn 0.684 -0.254 0.684
vn -0.62 -0.48 0.62
vn -0.326 0.888 0.326
vn 0.186 0.965 0.186
vn 0.326 0.888 0.326
vn 0.43 0.794 0.43
vn -0.43 0.794 0.43
vn 0.707 0 0.707
vn -0.43 0.794 -0.43
vn 0.531 0.66 -0.531
vn 0.684 0.254 -0.684
vn 0.707 0 -0.707
vn 0.62 0.48 -0.62
vn -0.62 0.48 -0.62
vn -0.62 -0.48 -0.62
vn -0.684 -0.254 -0.684
vn 0.684 -0.254 -0.684
vn -0.531 0.66 -0.531
vn 0.326 -0.887 -0.326
vn 0.43 -0.794 -0.43
vn 0.531 -0.66 -0.531
vn 0.62 -0.48 -0.62
vn 0.186 -0.965 -0.186
vn 0.186 -0.965 0.186
s 1
f 30/1/1 32/2/2 26/3/3
f 33/4/4 35/5/5 29/6/6
f 12/7/7 17/8/8 49/9/9
f 2/10/10 52/11/11 4/12/12
f 6/13/13 48/14/14 43/15/15
f 34/16/16 32/17/2 30/18/1
f 2/19/10 9/20/17 10/21/18
f 48/22/14 45/23/19 42/24/20
f 5/25/21 45/23/19 6/26/13
f 10/27/18 12/7/7 51/28/22
f 19/29/23 27/30/24 13/31/25
f 9/20/17 11/32/26 10/21/18
f 11/32/26 14/33/27 12/34/7
f 14/33/27 20/35/28 17/36/8
f 20/35/28 23/37/29 21/38/30
f 43/15/15 48/14/14 15/39/31
f 7/25/32 16/23/33 45/40/19
f 18/41/34 42/42/20 45/40/19
f 29/6/6 30/1/1 26/3/3
f 22/43/35 33/4/4 18/42/34
f 26/3/3 32/2/2 8/44/36
f 8/44/36 27/45/24 23/37/29
f 11/32/26 12/34/7 10/21/18
f 14/33/27 17/36/8 12/34/7
f 20/35/28 21/38/30 17/36/8
f 23/37/29 27/45/24 21/38/30
f 10/27/18 52/11/11 2/10/10
f 15/39/31 48/14/14 44/46/37
f 22/43/35 35/5/5 33/4/4
f 15/47/31 22/43/35 16/48/33
f 37/49/38 42/42/20 18/41/34
f 33/50/4 29/51/6 37/49/38
f 8/29/36 25/3/39 26/16/3
f 24/44/40 25/3/39 8/29/36
f 29/51/6 26/16/3 31/52/41
f 26/16/3 25/3/39 31/52/41
f 29/51/6 31/52/41 37/49/38
f 38/53/42 34/16/16 30/18/1
f 19/29/23 32/17/2 34/16/16
f 13/31/25 32/17/2 19/29/23
f 17/8/8 21/54/30 46/55/43
f 21/54/30 27/30/24 41/56/44
f 8/29/36 28/37/45 24/44/40
f 34/57/16 25/16/39 19/58/23
f 38/59/42 31/51/41 34/57/16
f 31/51/41 25/16/39 34/57/16
f 37/60/38 38/59/42 39/61/46
f 37/60/38 31/51/41 38/59/42
f 44/62/37 42/24/20 37/60/38
f 38/53/42 30/18/1 35/63/5
f 39/64/46 35/63/5 22/65/35
f 52/66/11 51/67/22 50/68/47
f 51/67/22 47/69/48 50/68/47
f 51/67/22 49/70/9 47/69/48
f 49/70/9 40/71/49 47/69/48
f 49/70/9 46/72/43 40/71/49
f 46/72/43 36/73/50 40/71/49
f 19/58/23 28/56/45 41/74/44
f 46/72/43 41/74/44 36/73/50
f 41/74/44 28/56/45 36/73/50
f 22/43/35 18/42/34 16/48/33
f 5/75/21 7/25/32 45/40/19
f 2/76/10 4/77/12 1/78/51 3/79/52
f 44/62/37 48/22/14 42/24/20
f 35/5/5 30/1/1 29/6/6
f 3/80/52 9/20/17 2/19/10
f 45/23/19 48/22/14 6/26/13
f 1/81/51 52/66/11 50/68/47
f 39/61/46 44/62/37 37/60/38
f 52/66/11 1/81/51 4/82/12
f 24/29/40 28/56/45 19/58/23
f 7/78/32 5/83/21 6/84/13 43/85/15
f 24/29/40 19/58/23 25/16/39
f 15/47/31 16/48/33 43/86/15
f 22/65/35 44/46/37 39/64/46
f 39/64/46 38/53/42 35/63/5
f 41/56/44 27/30/24 19/29/23
f 46/55/43 21/54/30 41/56/44
f 49/9/9 17/8/8 46/55/43
f 51/28/22 12/7/7 49/9/9
f 52/11/11 10/27/18 51/28/22
f 9/68/17 50/87/47 11/88/26
f 50/87/47 47/32/48 11/88/26
f 11/88/26 47/32/48 14/89/27
f 47/32/48 40/90/49 14/89/27
f 14/89/27 40/90/49 20/73/28
f 40/90/49 36/91/50 20/73/28
f 23/56/29 28/37/45 8/29/36
f 20/73/28 36/91/50 23/56/29
f 36/91/50 28/37/45 23/56/29
f 13/92/25 8/44/36 32/2/2
f 50/87/47 9/68/17 1/93/51
f 13/92/25 27/45/24 8/44/36
f 16/23/33 18/41/34 45/40/19
f 22/65/35 15/39/31 44/46/37
f 9/68/17 3/81/52 1/93/51
f 33/50/4 37/49/38 18/41/34
f 43/86/15 16/48/33 7/94/32
