v 0.416 0.278 0.5
v 0.462 0.191 0.5
v 0.416 0.278 -0.416
v 0.462 0.191 -0.462
v 0.49 0.098 0.5
v 0.354 0.354 0.5
v 0.354 0.354 -0.354
v 0.5 0 0.5
v 0.278 0.416 0.5
v 0.49 0.098 -0.49
v 0.278 0.416 -0.278
v 0.191 0.462 0.5
v 0.191 0.462 -0.191
v 0.098 0.49 0.5
v 0.098 0.49 -0.098
v 0 0.5 0.5
v -0.5 0.5 0.5
v -0.5 0.5 0
v -0.5 0.416 -0.278
v -0.5 0.462 -0.191
v -0.5 0.49 -0.098
v -0.5 -0.5 -0.5
v -0.5 -0.5 0.5
v 0 0.5 0
v -0.5 0 -0.5
v -0.5 0.354 -0.354
v -0.5 0.098 -0.49
v -0.5 0.278 -0.416
v -0.5 0.191 -0.462
v 0.5 0 -0.5
v 0.5 -0.5 -0.5
v 0.5 -0.5 0.5
v -0.5 -0.5 0.5
v -0.5 0.5 0.5
v -0.5 0.5 0
v -0.5 0.416 -0.278
v -0.5 0.462 -0.191
v -0.5 0.49 -0.098
v -0.5 -0.5 -0.5
v -0.5 0 -0.5
v -0.5 0.354 -0.354
v -0.5 0.098 -0.49
v -0.5 0.278 -0.416
v -0.5 0.191 -0.462
v -0.5 -0.033 0.033
v -0.5 -0.5 -0.5
v 0.5 -0.5 -0.5
v 0.5 -0.5 0.5
v 0.416 0.278 0.5
v 0.462 0.191 0.5
v 0.49 0.098 0.5
v 0.354 0.354 0.5
v 0.5 0 0.5
v 0.278 0.416 0.5
v 0.191 0.462 0.5
v -0.5 -0.5 0.5
v 0.098 0.49 0.5
v 0 0.5 0.5
v -0.5 0.5 0.5
v -0.033 -0.033 0.5
v 0.5 -0.5 0.5
vt 1 0.5
vt 0.99 0.598
vt 0.467 0.467
vt 1 0
vt 0 0
vt 0.598 0.99
vt 0.5 1
vt 0.691 0.962
vt 0.778 0.916
vt 0.854 0.854
vt 0.916 0.778
vt 0 1
vt 0.962 0.691
vt 0 0
vt 1 0
vt 1 1
vt 0 1
vt 0.533 0.467
vt 0 0.5
vt 0.403 0.99
vt 0.309 0.962
vt 0.222 0.916
vt 0.147 0.854
vt 0.084 0.778
vt 0.038 0.691
vt 0.01 0.598
vt 1 0.125
vt 0.222 0.125
vt 0.147 0.001
vt 1 0.001
vt 0 0.875
vt 0.916 0.875
vt 0.854 0.999
vt 0 0.999
vt 1 0.625
vt 0.01 0.625
vt 0 0.501
vt 1 0.501
vt 0.597 0.375
vt 0.5 0.499
vt 0 0.499
vt 0 0.375
vt 1 0.375
vt 1 0.5
vt 0.5 0.5
vt 0.403 0.375
vt 1 1
vt 0.146 1
vt 0.084 0.875
vt 1 0.875
vt 0.99 0.625
vt 0.962 0.75
vt 0 0.75
vt 0 0.625
vt 0.778 0.125
vt 0.691 0.25
vt 0 0.25
vt 0 0.125
vt 0.309 0.25
vt 1 0.25
vt 0.853 0
vt 0.038 0.75
vt 1 0.75
vt 0 0.5
vt 0 0.5
vt 0.5 1
vt 0.5 0.5
vn 0 0 1
vn 0 -1 0
vn -1 0 0
vn 0 0.832 -0.556
vn 0.326 0.888 -0.326
vn 0.43 0.794 -0.43
vn 0 0.707 -0.707
vn 0.832 0.556 0
vn 0.531 0.66 -0.531
vn 0.707 0.707 0
vn 0 0.195 -0.981
vn 0.684 0.254 -0.684
vn 0.706 0.067 -0.705
vn 0 0.049 -0.999
vn 0.123 0.985 -0.123
vn 0.037 0.999 -0.037
vn 0.049 0.999 0
vn 0.195 0.981 0
vn 0 0.981 -0.195
vn 0 0.999 -0.049
vn 0 0.556 -0.831
vn 0.62 0.48 -0.62
vn 0.924 0.383 0
vn 0.981 0.195 0
vn 0.223 0.949 -0.223
vn 0.383 0.924 0
vn 0.556 0.832 0
vn 0 0.924 -0.383
vn 0 0.383 -0.924
vn 0.999 0.049 0
vn 0.707 0 -0.707
vn 0 0 -1
vn 0 1 0
vn 1 0 0
s off
f 53/1/1 51/2/1 60/3/1
f 61/4/1 53/1/1 60/3/1 56/5/1
f 57/6/1 58/7/1 60/3/1
f 55/8/1 57/6/1 60/3/1
f 54/9/1 55/8/1 60/3/1
f 52/10/1 54/9/1 60/3/1
f 49/11/1 52/10/1 60/3/1
f 59/12/1 56/5/1 60/3/1 58/7/1
f 50/13/1 49/11/1 60/3/1
f 48/14/2 23/15/2 46/16/2 47/17/2
f 39/5/3 33/4/3 45/18/3 40/19/3
f 35/7/3 38/20/3 45/18/3
f 38/20/3 37/21/3 45/18/3
f 37/21/3 36/22/3 45/18/3
f 36/22/3 41/23/3 45/18/3
f 41/23/3 43/24/3 45/18/3
f 43/24/3 44/25/3 45/18/3
f 44/25/3 42/26/3 45/18/3
f 42/26/3 40/19/3 45/18/3
f 34/16/3 35/7/3 45/18/3 33/4/3
f 51/2/1 50/13/1 60/3/1
s 1
f 19/27/4 11/28/5 7/29/6 26/30/7
f 1/31/8 3/32/9 7/33/6 6/34/10
f 27/35/11 10/36/12 30/37/13 25/38/14
f 15/39/15 24/40/16 16/41/17 14/42/18
f 21/43/19 18/44/20 24/45/16 15/46/15
f 26/47/7 7/48/6 3/49/9 28/50/21
f 10/51/12 4/52/22 2/53/23 5/54/24
f 11/55/5 13/56/25 12/57/26 9/58/27
f 21/43/19 15/46/15 13/59/25 20/60/28
f 20/60/28 13/59/25 11/28/5 19/27/4
f 9/58/27 6/14/10 7/61/6 11/55/5
f 4/52/22 3/32/9 1/31/8 2/53/23
f 3/49/9 4/62/22 29/63/29 28/50/21
f 10/51/12 5/54/24 8/64/30 30/44/13
f 29/63/29 4/62/22 10/36/12 27/35/11
f 25/44/14 30/65/13 31/14/31 22/15/32
f 16/66/17 24/67/16 18/44/20 17/16/33
f 8/65/30 32/14/34 31/15/31 30/44/13
f 12/57/26 13/56/25 15/39/15 14/42/18
