v -0.5 0.49 -0.098
v 0.5 0.49 -0.098
v -0.5 0.462 -0.191
v 0.5 0.462 -0.191
v -0.5 0.416 -0.278
v 0.5 0.416 -0.278
v -0.5 0.354 -0.354
v 0.5 0.354 -0.354
v -0.5 0.278 -0.416
v 0.5 0.278 -0.416
v -0.5 0.191 -0.462
v 0.5 0.191 -0.462
v -0.5 0.098 -0.49
v 0.5 0.098 -0.49
v 0.5 0 -0.5
v 0.5 0.49 -0.098
v -0.5 -0.5 0.5
v -0.5 -0.5 -0.5
v 0.5 -0.5 -0.5
v -0.5 0.5 0.5
v 0.5 0.5 0.5
v -0.5 0 -0.5
v -0.5 0.5 0
v 0.5 0.5 0
v -0.5 0.49 -0.098
v -0.5 0.462 -0.191
v -0.5 0.416 -0.278
v -0.5 0.354 -0.354
v -0.5 0.278 -0.416
v -0.5 0.191 -0.462
v -0.5 0.098 -0.49
v -0.5 0 0
v -0.5 -0.5 0.5
v -0.5 -0.5 -0.5
v -0.5 0.5 0.5
v -0.5 0 -0.5
v -0.5 0.5 0
v 0.5 0.462 -0.191
v 0.5 0.416 -0.278
v 0.5 0.354 -0.354
v 0.5 0.278 -0.416
v 0.5 0.191 -0.462
v 0.5 0.098 -0.49
v 0.5 0 -0.5
v 0.5 0 0
v 0.5 -0.5 -0.5
v 0.5 -0.5 0.5
v 0.5 0.5 0.5
v 0.5 0.5 0
v -0.5 -0.5 -0.5
v 0.5 -0.5 -0.5
v 0.5 -0.5 0.5
v -0.5 -0.5 0.5
v 0.5 -0.5 0.5
v -0.5 0.5 0.5
v 0.5 0.5 0.5
vt 1 0
vt 1 0.5
vt 0.5 0.5
vt 0.5 1
vt 0 1
vt 0 0
vt 0.598 0.99
vt 0.691 0.962
vt 1 1
vt 0.99 0.598
vt 0.962 0.691
vt 0.778 0.916
vt 0.854 0.854
vt 0.916 0.778
vt 0.146 0.854
vt 0.084 0.778
vt 0.038 0.691
vt 0.309 0.962
vt 0.222 0.916
vt 0 0.5
vt 0.402 0.99
vt 0.01 0.598
vt 1 0.375
vt 0 0.375
vt 0 0.25
vt 1 0.25
vt 0 0.125
vt 1 0.125
vt 0 0.875
vt 1 0.875
vt 0 0.75
vt 1 0.75
vt 0 0.625
vt 1 0.625
vn 1 0 0
vn 0 0 1
vn 0 -1 0
vn -1 0 0
vn 0 0.981 -0.195
vn 0 0.924 -0.383
vn 0 0.832 -0.556
vn 0 0.707 -0.707
vn 0 0.556 -0.831
vn 0 0.383 -0.924
vn 0 0.195 -0.981
vn 0 1 0
vn 0 0.999 -0.049
vn 0 0.049 -0.999
vn 0 0 -1
s off
f 46/1/1 44/2/1 45/3/1 49/4/1 48/5/1 47/6/1
f 16/7/1 49/4/1 45/3/1 38/8/1
f 55/5/2 53/6/2 54/1/2 56/9/2
f 43/10/1 42/11/1 45/3/1 44/2/1
f 39/12/1 38/8/1 45/3/1 40/13/1
f 41/14/1 40/13/1 45/3/1 42/11/1
f 50/9/3 51/5/3 52/6/3 17/1/3
f 28/15/4 29/16/4 30/17/4 32/3/4
f 26/18/4 27/19/4 28/15/4 32/3/4
f 35/9/4 37/4/4 32/3/4 36/20/4 34/6/4 33/1/4
f 37/4/4 25/21/4 26/18/4 32/3/4
f 30/17/4 31/22/4 36/20/4 32/3/4
s 1
f 1/23/5 2/24/5 4/25/6 3/26/6
f 3/26/6 4/25/6 6/27/7 5/28/7
f 5/28/7 6/27/7 8/6/8 7/1/8
f 7/9/8 8/5/8 10/29/9 9/30/9
f 9/30/9 10/29/9 12/31/10 11/32/10
f 11/32/10 12/31/10 14/33/11 13/34/11
f 21/5/12 24/20/13 23/2/13 20/9/12
f 13/34/11 14/33/11 15/20/14 22/2/14
f 23/2/13 24/20/13 2/24/5 1/23/5
f 18/1/15 22/2/14 15/20/14 19/6/15
